Coordinates
version=1
nRows=60
nColumns=12
inDegrees=yes

Units are S.I. units (second, meters, Newtons, ...)
Angles are in degrees

endheader
time	SC_y	SC_z	SC_x	AC_y	AC_z	AC_x	GH_y	GH_z	GH_yy	EL_x	PS_y
       0.0               -37.9           31.8           65.0          56.74         -18.74          10.53         -156.3          18.25          104.8          57.41          51.76
   0.01532               -37.9           31.8          64.99          56.74         -18.74          10.53         -156.3          18.25          104.8          57.41          51.76
   0.03063              -37.91           31.8          64.98          56.74         -18.74          10.53         -156.3          18.25          104.7           57.4          51.76
   0.04595              -37.91           31.8          64.97          56.73         -18.74          10.53         -156.2          18.25          104.7           57.4          51.76
   0.06126              -37.92           31.8          64.96          56.73         -18.73          10.53         -156.2          18.25          104.6          57.39          51.76
   0.07658              -37.92           31.8          64.95          56.72         -18.73          10.53         -156.2          18.25          104.6          57.39          51.76
    0.0919              -37.92           31.8          64.94          56.72         -18.73          10.53         -156.2          18.25          104.5          57.38          51.76
    0.1072              -37.93           31.8          64.93          56.71         -18.73          10.53         -156.1          18.26          104.5          57.38          51.76
    0.1225              -37.93           31.8          64.92          56.71         -18.73          10.53         -156.1          18.26          104.4          57.37          51.75
    0.1378              -37.94           31.8           64.9           56.7         -18.73          10.53         -156.1          18.26          104.4          57.36          51.75
    0.1532              -37.94           31.8          64.89          56.69         -18.73          10.53         -156.0          18.26          104.3          57.36          51.75
    0.1685              -37.95           31.8          64.87          56.69         -18.72          10.53         -156.0          18.26          104.2          57.35          51.75
    0.1838              -37.96          31.81          64.86          56.68         -18.72          10.53         -155.9          18.26          104.1          57.34          51.75
    0.1991              -37.96          31.81          64.84          56.67         -18.72          10.53         -155.9          18.26          104.1          57.33          51.75
    0.2144              -37.97          31.81          64.82          56.66         -18.72          10.53         -155.9          18.26          104.0          57.32          51.74
    0.2297              -37.98          31.81           64.8          56.65         -18.72          10.53         -155.8          18.26          103.9          57.31          51.74
    0.2451              -37.99          31.81          64.78          56.64         -18.71          10.53         -155.7          18.26          103.8           57.3          51.74
    0.2604               -38.0          31.81          64.75          56.63         -18.71          10.53         -155.7          18.26          103.6          57.29          51.74
    0.2757              -38.01          31.81          64.72          56.62         -18.71          10.53         -155.6          18.26          103.5          57.27          51.73
     0.291              -38.02          31.82          64.69           56.6          -18.7          10.53         -155.5          18.26          103.4          57.26          51.73
    0.3063              -38.04          31.82          64.66          56.59          -18.7          10.53         -155.5          18.26          103.2          57.24          51.73
    0.3216              -38.05          31.82          64.62          56.57          -18.7          10.53         -155.4          18.26          103.1          57.22          51.72
     0.337              -38.07          31.82          64.58          56.55         -18.69          10.53         -155.3          18.26          102.9           57.2          51.72
    0.3523              -38.08          31.83          64.54          56.53         -18.69          10.53         -155.2          18.26          102.7          57.18          51.71
    0.3676               -38.1          31.83          64.49          56.51         -18.68          10.54         -155.1          18.27          102.4          57.15          51.71
    0.3829              -38.13          31.83          64.44          56.48         -18.67          10.54         -154.9          18.27          102.2          57.12           51.7
    0.3982              -38.15          31.84          64.37          56.46         -18.67          10.54         -154.8          18.27          101.9          57.09           51.7
    0.4135              -38.18          31.84           64.3          56.42         -18.66          10.54         -154.6          18.27          101.6          57.06          51.69
    0.4289              -38.21          31.85          64.23          56.39         -18.65          10.54         -154.4          18.27          101.2          57.02          51.68
    0.4442              -38.24          31.85          64.14          56.35         -18.64          10.54         -154.2          18.27          100.8          56.97          51.67
    0.4595              -38.28          31.86          64.04           56.3         -18.63          10.54         -153.9          18.28          100.3          56.92          51.66
    0.4748              -38.33          31.87          63.92          56.25         -18.61          10.54         -153.7          18.28          99.78          56.86          51.65
    0.4901              -38.38          31.88          63.79          56.18          -18.6          10.54         -153.3          18.28          99.15          56.79          51.63
    0.5054              -38.45          31.89          63.63          56.11         -18.58          10.55         -152.9          18.29          98.42          56.71          51.61
    0.5208              -38.52           31.9          63.45          56.03         -18.56          10.55         -152.5          18.29          97.57          56.62          51.59
    0.5361              -38.61          31.92          63.23          55.93         -18.53          10.55         -152.0           18.3          96.57          56.51          51.57
    0.5514              -38.71          31.93          62.98          55.81          -18.5          10.56         -151.3           18.3          95.38          56.38          51.54
    0.5667              -38.83          31.96          62.67          55.67         -18.47          10.56         -150.6          18.31          93.95          56.22          51.51
     0.582              -38.98          31.98           62.3           55.5         -18.43          10.57         -149.7          18.32          92.22          56.03          51.47
    0.5973              -39.16          32.01          61.85          55.29         -18.37          10.57         -148.6          18.33          90.11           55.8          51.42
    0.6126              -39.38          32.05          61.29          55.03         -18.31          10.58         -147.2          18.35           87.5          55.51          51.36
     0.628              -39.66           32.1          60.59          54.71         -18.23          10.59         -145.5          18.36          84.25          55.15          51.28
    0.6433              -40.01          32.16          59.71           54.3         -18.12           10.6         -143.3          18.39          80.16           54.7          51.19
    0.6586              -40.46          32.24          58.59          53.79         -17.99          10.62         -140.6          18.41          74.95          54.13          51.07
    0.6739              -41.03          32.34          57.16          53.13         -17.83          10.64         -137.1          18.45          68.29          53.39          50.91
    0.6892              -41.76          32.46          55.33          52.28         -17.61          10.66         -132.6          18.49          59.74          52.45          50.71
    0.7045              -42.69          32.62          52.98           51.2         -17.34          10.69         -126.8          18.55          48.81          51.25          50.46
    0.7199              -43.87          32.83          50.04          49.84          -17.0          10.73         -119.6          18.63          35.08          49.74          50.13
    0.7352               -45.3          33.07          46.45          48.19         -16.58          10.78         -110.8          18.72          18.35           47.9          49.74
    0.7505              -46.96          33.36          42.28          46.27          -16.1          10.84         -100.6          18.82         -1.053          45.76          49.29
    0.7658              -48.76          33.67          37.78          44.19         -15.57           10.9         -89.54          18.93         -22.06          43.45           48.8
    0.7811              -50.56          33.98          33.27          42.11         -15.05          10.96         -78.49          19.05         -43.06          41.14          48.31
    0.7964              -52.22          34.27          29.11          40.19         -14.57          11.02         -68.28          19.15         -62.46           39.0          47.86
    0.8118              -53.65          34.51          25.51          38.53         -14.15          11.07         -59.47          19.24          -79.2          37.16          47.47
    0.8271              -54.83          34.72          22.57          37.18         -13.81          11.11         -52.24          19.31         -92.93          35.65          47.15
    0.8424              -55.76          34.88          20.22          36.09         -13.53          11.14          -46.5          19.37         -103.9          34.45          46.89
    0.8577              -56.49           35.0          18.39          35.25         -13.32          11.17          -42.0          19.42         -112.4           33.5          46.69
     0.873              -57.07           35.1          16.96          34.59         -13.16          11.19         -38.49          19.45         -119.1          32.77          46.53
    0.8883              -57.51          35.18          15.84          34.07         -13.03           11.2         -35.75          19.48         -124.3           32.2          46.41
    0.9037              -57.86          35.24          14.96          33.67         -12.92          11.21          -33.6           19.5         -128.4          31.75          46.32
